<svg width="27" height="48" viewBox="0 0 27 48" fill="none" xmlns="http://www.w3.org/2000/svg">
<path d="M7.04067 24.0169L26.0311 42.6212C26.677 43.254 26.9897 43.9923 26.969 44.836C26.9483 45.6797 26.6142 46.418 25.9665 47.0508C25.3188 47.6836 24.5653 48 23.7057 48C22.8462 48 22.0926 47.6836 21.445 47.0508L1.55024 27.6239C1.03349 27.1176 0.645933 26.5481 0.38756 25.9153C0.129187 25.2825 0 24.6497 0 24.0169C0 23.3841 0.129187 22.7513 0.38756 22.1185C0.645933 21.4857 1.03349 20.9162 1.55024 20.41L21.445 0.919765C22.0909 0.286967 22.8557 -0.0193077 23.7393 0.000941841C24.623 0.0211914 25.3869 0.348559 26.0311 0.983046C26.6753 1.61753 26.9983 2.3558 27 3.19784C27.0017 4.03989 26.6787 4.77815 26.0311 5.41264L7.04067 24.0169Z" fill="#01F150"/>
</svg>
