<svg width="26" height="48" viewBox="0 0 26 48" fill="none" xmlns="http://www.w3.org/2000/svg">
<path d="M19.2201 24.0169L0.933022 42.6212C0.311012 43.254 0.00996006 43.9923 0.0298644 44.836C0.0497687 45.6797 0.371554 46.418 0.995222 47.0508C1.61889 47.6836 2.34457 48 3.17225 48C3.99994 48 4.72562 47.6836 5.34929 47.0508L24.5072 27.6239C25.0048 27.1176 25.378 26.5481 25.6268 25.9153C25.8756 25.2825 26 24.6497 26 24.0169C26 23.3841 25.8756 22.7513 25.6268 22.1185C25.378 21.4857 25.0048 20.9162 24.5072 20.41L5.34929 0.919765C4.72728 0.286967 3.99082 -0.0193077 3.13991 0.000941841C2.289 0.0211914 1.55337 0.348559 0.933022 0.983046C0.312671 1.61753 0.00166639 2.3558 7.69864e-06 3.19784C-0.00165099 4.03989 0.309354 4.77815 0.933022 5.41264L19.2201 24.0169Z" fill="#01F150"/>
</svg>
