<svg width="28" height="54" viewBox="0 0 28 54" fill="none" xmlns="http://www.w3.org/2000/svg">
<path d="M7.98769 27L24.5252 43.5375C25.0877 44.1 25.3599 44.7562 25.3419 45.5062C25.3239 46.2562 25.0329 46.9125 24.4689 47.475C23.9049 48.0375 23.2487 48.3187 22.5002 48.3187C21.7517 48.3187 21.0954 48.0375 20.5314 47.475L3.20645 30.2062C2.75645 29.7562 2.41895 29.25 2.19395 28.6875C1.96895 28.125 1.85645 27.5625 1.85645 27C1.85645 26.4375 1.96895 25.875 2.19395 25.3125C2.41895 24.75 2.75645 24.2437 3.20645 23.7937L20.5314 6.46871C21.0939 5.90621 21.7599 5.63396 22.5294 5.65196C23.2989 5.66996 23.9642 5.96096 24.5252 6.52496C25.0862 7.08896 25.3674 7.74521 25.3689 8.49371C25.3704 9.24221 25.0892 9.89846 24.5252 10.4625L7.98769 27Z" fill="#01F150"/>
</svg>
