<svg width="145" height="24" viewBox="0 0 145 24" fill="none" xmlns="http://www.w3.org/2000/svg">
<path d="M140.539 0H143.759L136.724 8.04821L145 19H138.519L133.443 12.3578L127.636 19H124.414L131.938 10.3915L124 0H130.644L135.232 6.07123L140.539 0ZM139.409 17.0708H141.193L129.675 1.8279H127.76L139.409 17.0708Z" fill="#07C746"/>
<path d="M105.5 0C99.175 0 94 4.725 94 10.5C94 16.275 99.175 21 105.5 21C111.825 21 117 16.275 117 10.5C117 4.725 111.882 0 105.5 0ZM109.812 15.3825C107.11 13.86 103.718 13.545 99.6925 14.385C99.29 14.49 98.945 14.2275 98.83 13.9125C98.715 13.545 99.0025 13.23 99.3475 13.125C103.717 12.2325 107.513 12.6 110.503 14.28C110.905 14.4375 110.963 14.8575 110.79 15.1725C110.56 15.4875 110.157 15.5925 109.812 15.3825ZM110.962 12.5475C107.857 10.815 103.143 10.29 99.52 11.34C99.06 11.445 98.5425 11.235 98.4275 10.815C98.3125 10.395 98.5425 9.9225 99.0025 9.8175C103.2 8.6625 108.375 9.24 111.94 11.235C112.285 11.3925 112.458 11.9175 112.17 12.285C111.883 12.6525 111.365 12.81 110.962 12.5475ZM98.9439 8.1375C98.3689 8.295 97.7939 7.98 97.6214 7.5075C97.4489 6.9825 97.7939 6.4575 98.3113 6.3C102.394 5.1975 109.121 5.4075 113.376 7.7175C113.894 7.98 114.066 8.61 113.779 9.0825C113.491 9.45 112.801 9.6075 112.284 9.345C108.604 7.35 102.451 7.14 98.9439 8.1375Z" fill="#07C746"/>
<path d="M41.8056 0C42.4732 0.00393775 44.1433 0.0210013 45.9183 0.0958184L46.5484 0.124695C48.3347 0.212638 50.1198 0.364898 51.0061 0.623476C52.1874 0.972623 53.115 1.98856 53.4287 3.27752C53.9287 5.32515 53.9912 9.31802 53.9987 10.2854L54 10.4849V10.7133C53.9912 11.6807 53.9287 15.6749 53.4287 17.7212C53.1112 19.0141 52.1824 20.0313 51.0061 20.3752C50.1198 20.6338 48.3347 20.786 46.5484 20.874L45.9183 20.9042C44.1433 20.9777 42.4732 20.9961 41.8056 20.9987L41.5119 21H41.1931C39.7805 20.9908 33.8727 20.9239 31.9926 20.3752C30.8126 20.0261 29.8838 19.0101 29.57 17.7212C29.07 15.6735 29.0075 11.6807 29 10.7133V10.2854C29.0075 9.31802 29.07 5.32383 29.57 3.27752C29.8875 1.98462 30.8163 0.967373 31.9939 0.624789C33.8727 0.074817 39.7818 0.00787549 41.1944 0H41.8056ZM38.9992 5.90662V15.0947L46.4996 10.5007L38.9992 5.90662Z" fill="#07C746"/>
<path d="M73.9749 4.716H76.0607V9.852H73.9749M79.7071 4.716H81.7929V9.852H79.7071M67.2071 0L62 4.284V19.716H68.2427V24L73.4644 19.716H77.6214L87 12V0M84.9142 11.148L80.7573 14.568H76.5858L72.9393 17.568V14.568H68.2427V1.716H84.9142V11.148Z" fill="#07C746"/>
<path d="M6.09 0H14.91C18.27 0 21 2.73 21 6.09V14.91C21 16.5252 20.3584 18.0742 19.2163 19.2163C18.0742 20.3584 16.5252 21 14.91 21H6.09C2.73 21 0 18.27 0 14.91V6.09C0 4.47483 0.641623 2.92582 1.78372 1.78372C2.92582 0.641623 4.47483 0 6.09 0ZM5.88 2.1C4.87748 2.1 3.91602 2.49825 3.20714 3.20714C2.49825 3.91602 2.1 4.87748 2.1 5.88V15.12C2.1 17.2095 3.7905 18.9 5.88 18.9H15.12C16.1225 18.9 17.084 18.5018 17.7929 17.7929C18.5018 17.084 18.9 16.1225 18.9 15.12V5.88C18.9 3.7905 17.2095 2.1 15.12 2.1H5.88ZM16.0125 3.675C16.3606 3.675 16.6944 3.81328 16.9406 4.05942C17.1867 4.30556 17.325 4.6394 17.325 4.9875C17.325 5.3356 17.1867 5.66944 16.9406 5.91558C16.6944 6.16172 16.3606 6.3 16.0125 6.3C15.6644 6.3 15.3306 6.16172 15.0844 5.91558C14.8383 5.66944 14.7 5.3356 14.7 4.9875C14.7 4.6394 14.8383 4.30556 15.0844 4.05942C15.3306 3.81328 15.6644 3.675 16.0125 3.675ZM10.5 5.25C11.8924 5.25 13.2277 5.80312 14.2123 6.78769C15.1969 7.77226 15.75 9.10761 15.75 10.5C15.75 11.8924 15.1969 13.2277 14.2123 14.2123C13.2277 15.1969 11.8924 15.75 10.5 15.75C9.10761 15.75 7.77226 15.1969 6.78769 14.2123C5.80312 13.2277 5.25 11.8924 5.25 10.5C5.25 9.10761 5.80312 7.77226 6.78769 6.78769C7.77226 5.80312 9.10761 5.25 10.5 5.25ZM10.5 7.35C9.66457 7.35 8.86335 7.68187 8.27261 8.27261C7.68187 8.86335 7.35 9.66457 7.35 10.5C7.35 11.3354 7.68187 12.1366 8.27261 12.7274C8.86335 13.3181 9.66457 13.65 10.5 13.65C11.3354 13.65 12.1366 13.3181 12.7274 12.7274C13.3181 12.1366 13.65 11.3354 13.65 10.5C13.65 9.66457 13.3181 8.86335 12.7274 8.27261C12.1366 7.68187 11.3354 7.35 10.5 7.35Z" fill="#07C746"/>
</svg>
